#!OML:ASF F:\VICON\USERDATA\INSTALL\rory3\rory3.ASF
:FULLY-SPECIFIED
:DEGREES
129
root -10.0435 17.577 1.42024 -2.39606 21.2341 3.85308
lowerback 10.9874 -0.275283 -6.41379
upperback 0.988644 -1.13187 0.119891
thorax -5.00437 -0.41794 3.91376
lowerneck -21.4514 -5.2726 -11.8509
upperneck 29.0656 -5.86342 8.01412
head 14.1569 -2.73981 4.18502
rclavicle -2.14874e-014 -3.97569e-016
rhumerus -36.2292 -18.6506 -76.7184
rradius 25.4846
rwrist 12.4565
rhand -16.3122 7.36873
rfingers 7.12502
rthumb 9.89894 -22.3785
lclavicle -2.14874e-014 -3.97569e-016
lhumerus -25.7655 -2.17881 87.2432
lradius 39.1904
lwrist -2.44034
lhand -17.2827 30.011
lfingers 7.12502
lthumb 8.96258 59.8006
rfemur -21.9352 2.60468 10.3442
rtibia 19.7905
rfoot -8.00285 9.71944
rtoes -23.4804
lfemur 12.6929 -5.73606 -31.7042
ltibia 14.7473
lfoot -10.9453 -10.0805
ltoes 1.60498
130
root -10.0151 17.5835 1.5435 -2.38499 21.5861 4.09693
lowerback 11.0329 -0.247814 -6.61609
upperback 1.04802 -1.12406 0.0536155
thorax -4.96549 -0.412959 3.95709
lowerneck -21.4518 -5.23012 -11.779
upperneck 29.1654 -5.7878 7.88874
head 14.1831 -2.71664 4.13875
rclavicle -1.11319e-014 -1.25234e-014
rhumerus -36.1821 -18.8383 -76.6294
rradius 25.2688
rwrist 12.7239
rhand -16.4886 7.64159
rfingers 7.12502
rthumb 9.72874 -22.1137
lclavicle -1.11319e-014 -1.25234e-014
lhumerus -25.8777 -1.90036 87.2271
lradius 39.0128
lwrist -2.54356
lhand -17.1791 29.8811
lfingers 7.12502
lthumb 9.06257 59.6665
rfemur -21.7391 2.90171 10.1456
rtibia 20.5971
rfoot -7.58216 10.1497
rtoes -23.3286
lfemur 13.2335 -6.04922 -32.0141
ltibia 14.8154
lfoot -10.7615 -9.96703
ltoes 0.584974
131
root -9.99236 17.587 1.66848 -2.50491 22.0469 4.02051
lowerback 11.1192 -0.315439 -6.58185
upperback 1.10103 -1.2116 0.0905534
thorax -4.94722 -0.458169 3.99078
lowerneck -21.3788 -5.12985 -11.7497
upperneck 29.126 -5.64447 7.85412
head 14.1289 -2.65658 4.14585
rclavicle 6.0033e-014 1.07344e-014
rhumerus -36.0951 -18.9567 -76.5501
rradius 25.0184
rwrist 12.9631
rhand -16.2562 7.53962
rfingers 7.12502
rthumb 9.95303 -22.2051
lclavicle 6.0033e-014 1.07344e-014
lhumerus -26.0193 -1.46357 87.1533
lradius 38.8392
lwrist -2.76154
lhand -17.1104 30.3847
lfingers 7.12502
lthumb 9.12883 60.1672
rfemur -21.526 3.42153 10.2784
rtibia 21.487
rfoot -7.27352 10.3166
rtoes -23.8943
lfemur 13.8814 -6.42731 -31.9526
ltibia 14.7311
lfoot -10.4098 -9.97204
ltoes -0.416406
132
root -9.97212 17.5838 1.79513 -2.64467 22.5826 3.8739
lowerback 11.2166 -0.397078 -6.53824
upperback 1.17884 -1.31328 0.183733
thorax -4.90601 -0.511421 4.08068
lowerneck -21.378 -5.052 -11.7671
upperneck 29.0754 -5.49945 7.79747
head 14.0866 -2.60254 4.15112
rclavicle 4.29251e-014 -3.57812e-015
rhumerus -35.8438 -18.9579 -76.518
rradius 24.6838
rwrist 13.0961
rhand -16.1351 7.48055
rfingers 7.12502
rthumb 10.0698 -22.2585
lclavicle 4.29251e-014 -3.57812e-015
lhumerus -26.0874 -0.95981 87.1464
lradius 38.596
lwrist -2.94192
lhand -17.0347 30.1312
lfingers 7.12502
lthumb 9.20187 59.9104
rfemur -21.3482 4.21467 10.3783
rtibia 22.325
rfoot -6.26804 10.6901
rtoes -21.6125
lfemur 14.4955 -6.86441 -31.8082
ltibia 14.6761
lfoot -9.9005 -10.0346
ltoes -0.993892
133
root -9.94478 17.5924 1.9226 -2.62011 23.0962 3.9152
lowerback 11.2529 -0.401566 -6.5668
upperback 1.16577 -1.32608 0.177057
thorax -4.93812 -0.515616 4.0927
lowerneck -21.3628 -5.0293 -11.6836
upperneck 29.2263 -5.46133 7.67294
head 14.1368 -2.59495 4.09808
rclavicle 9.12919e-014 1.19271e-015
rhumerus -35.8131 -19.0757 -76.4464
rradius 24.4687
rwrist 13.0867
rhand -16.2594 7.41277
rfingers 7.12502
rthumb 9.94992 -22.3321
lclavicle 9.12919e-014 1.19271e-015
lhumerus -26.2816 -0.743446 87.1814
lradius 38.3022
lwrist -2.98893
lhand -17.0726 29.879
lfingers 7.12502
lthumb 9.16528 59.6598
rfemur -21.2238 4.85734 10.2559
rtibia 22.9608
rfoot -4.50307 11.552
rtoes -15.3636
lfemur 14.823 -7.27984 -31.8707
ltibia 14.9279
lfoot -9.44203 -10.0744
ltoes -1.33665
134
root -9.9116 17.6011 2.05265 -2.55847 23.6287 3.92127
lowerback 11.2634 -0.395954 -6.45266
upperback 1.11979 -1.30858 0.146597
thorax -4.99794 -0.506318 3.99432
lowerneck -21.3935 -5.02149 -11.6842
upperneck 29.4407 -5.45423 7.67868
head 14.2368 -2.59233 4.11024
rclavicle 4.66523e-014 1.8487e-014
rhumerus -35.96 -19.3871 -76.2895
rradius 24.3699
rwrist 13.1628
rhand -16.2394 7.49803
rfingers 7.12502
rthumb 9.96924 -22.2459
lclavicle 4.66523e-014 1.8487e-014
lhumerus -26.4814 -0.616904 87.2468
lradius 37.9324
lwrist -3.0883
lhand -17.0943 30.2971
lfingers 7.12502
lthumb 9.14433 60.0789
rfemur -21.1206 4.99871 10.2739
rtibia 23.5249
rfoot -2.74313 12.7899
rtoes -7.73304
lfemur 15.024 -7.73999 -31.9218
ltibia 15.3662
lfoot -8.94559 -10.0726
ltoes -2.07069
135
root -9.88293 17.61 2.18697 -2.67848 24.179 3.6325
lowerback 11.3457 -0.45468 -6.15904
upperback 1.05987 -1.35416 0.219765
thorax -5.10678 -0.529121 3.91535
lowerneck -21.3285 -4.95146 -11.6411
upperneck 29.5812 -5.34937 7.59362
head 14.2664 -2.556 4.09319
rclavicle 5.32619e-014 9.74045e-015
rhumerus -36.1536 -19.5746 -76.1736
rradius 24.3294
rwrist 13.2934
rhand -16.1262 7.2887
rfingers 7.12502
rthumb 10.0784 -22.45
lclavicle 5.32619e-014 9.74045e-015
lhumerus -26.7929 -0.285917 87.271
lradius 37.552
lwrist -3.07211
lhand -17.1566 30.8877
lfingers 7.12502
lthumb 9.08425 60.6721
rfemur -20.8962 5.14927 10.6061
rtibia 24.0702
rfoot -1.42215 13.5282
rtoes -2.09229
lfemur 15.2081 -8.28316 -31.675
ltibia 16.0384
lfoot -8.5783 -10.0695
ltoes -3.37406
